<svg xmlns="http://www.w3.org/2000/svg" width="1280" height="640" viewBox="0 0 1280 640">
  <defs>
    <linearGradient id="bg" x1="0" y1="0" x2="1" y2="1">
      <stop stop-color="#100525"/>
      <stop offset=".55" stop-color="#2b0f43"/>
      <stop offset="1" stop-color="#07020d"/>
    </linearGradient>
    <linearGradient id="brand" x1="0" y1="0" x2="1" y2="1">
      <stop stop-color="#8c52ff"/>
      <stop offset=".58" stop-color="#ff3158"/>
      <stop offset="1" stop-color="#ff9b1f"/>
    </linearGradient>
    <filter id="glow"><feGaussianBlur stdDeviation="18" result="b"/><feMerge><feMergeNode in="b"/><feMergeNode in="SourceGraphic"/></feMerge></filter>
  </defs>
  <rect width="1280" height="640" fill="url(#bg)"/>
  <circle cx="1020" cy="170" r="280" fill="#ff3158" opacity=".13"/>
  <circle cx="250" cy="130" r="240" fill="#8c52ff" opacity=".18"/>
  <path d="M470 170 L810 170 L1110 640 L170 640 Z" fill="#10091b" stroke="#ff3158" stroke-width="8"/>
  <path d="M583 170 L480 640 M697 170 L800 640" stroke="white" opacity=".15" stroke-width="5" stroke-dasharray="22 22"/>
  <g transform="translate(640 435)" filter="url(#glow)">
    <rect x="-65" y="-82" width="130" height="164" rx="40" fill="url(#brand)"/>
    <rect x="-45" y="-55" width="90" height="55" rx="18" fill="#140722"/>
    <rect x="-27" y="-35" width="15" height="9" fill="#ffcf4a"/><rect x="12" y="-35" width="15" height="9" fill="#ffcf4a"/>
    <text x="0" y="47" text-anchor="middle" font-family="Arial, sans-serif" font-size="34" font-weight="900" fill="white">GB</text>
  </g>
  <g font-family="Arial, sans-serif" fill="white">
    <text x="80" y="105" font-size="27" font-weight="800" fill="#ff9b1f">GAMEBOSH ORIGINAL</text>
    <text x="80" y="190" font-size="78" font-weight="900">NEON DASH</text>
    <text x="80" y="245" font-size="26" fill="#d6c9df">Free HTML5 browser game • No downloads</text>
  </g>
</svg>
